<svg id="eXpSTEwCiZY1" xmlns="http://www.w3.org/2000/svg" xmlns:xlink="http://www.w3.org/1999/xlink" viewBox="0 0 715 715" shape-rendering="geometricPrecision" text-rendering="geometricPrecision" project-id="2664b586bde24103a01fa5ffb0c758cb" export-id="289742547fac4845b90a57d0bfd4076d" cached="false"><g transform="matrix(.100002 0 0-.100002 0 715.007965)"><g><path d="M5559.15306,1897c0,0,19.84694-25,35.84694-47c15-22,25.851-35.55275,25.851-35.55275s32.5043-39.113075,39.149-46.44725c16.64825-15.63501,18-13,51,18c16,15,29,24,29,37c0,20.598935-212,311-212,311q-41.4,65.695401-46,72.99489c0,0-20,29.00511-20,29.00511s-34,43-56,72c-24.836162,39.19376-32.795597,49.113196-44.55266,46.17393C5351.44734,2349.74786,5350,2350,5333,2338c-44-31-47-44-18-82c14-18,25-39,25-39s49.6575-75.4618,84.82875-122.7309s119.35212-119.26923-137.82875,26.7309c0,0-66,37-79,34-6.578953-1.51822-24-30-24-30-34-43-30-57,24-84c26-12,55.01839-24.88684,55.01839-24.88684s35.98161-16.11316,35.98161-16.11316s165.99002-64.48997,207.76902-78.12551s52.38404-24.87449,52.38404-24.87449Z" fill="#e4472a" stroke="#ac5029" stroke-width="32"/><path d="M5221,1593c0,0-20,11-44,28l-44,31-12,111c-6,62-13,130-14,152-2,37-4,40-32,42-16,1-44.36555-4.23388-44.36555-4.23388s-18.63445-2.33045-22.63445-7.33045c-3-6-4-87.43567-1-172.43567c5-133,4-153-9-153-12,0-123,121-164,178-10,14-84-38-84-58c0-8,145-193,185-236c5-7,28-35,50-64c134-177,157-194,196-147c25,30,24,44-8,82-51,59-64,77-84,108-10,18-19,35-19,40c0,13,29,7,67-15c21-11,47-26,58-32s34-21,52-33c17-13,38-23,46-23c18,0,57,51,57,74c0,15-99,76-99,76q-30,23-30,23Z" fill="#e4472a" stroke="#ac5029" stroke-width="32"/><path d="M4592,1372c0,0-70,132-65,145c3,7,36,25,74,40s69,34,69,41-7,28-14,47c-15,35-28,41-56,25-8-4-58-25-110-46s-119-51-149-66c-29-15-59-28-67-28-17,0-18-37-1-73c11-25,36-35,51-20c6,7,75,33,88,33c3,0,21-30,38-67c33-70,95-197,109-223c4-8,14-26,20-39c62.25649-121,63.50636-125.63233,80-125.63233c23,10,85.451419,43.077742,83.56627,49.89316C4736,1089,4698,1150,4698,1150s-8,14-8,14-80,163.45522-80,163.45522Q4592,1372,4592,1372Z" fill="#e4472a" stroke="#ac5029" stroke-width="32"/><path d="M3843,969c6.938491-24.017854,9-55,31-111c10-25,16-28,57-28c26,0,51,6,56,13c15,20,70,166,70,166s9-50.73029,31-137.73029c2.548791-6.292768,68.996867-15.284798,90.82769-13.26971c15,9,2.17231,93-17.82769,267-6,50-15,135-20,190-13,142-14,145-67,145-31,0-46-5-52-17-5-10-15-43-22-73s-12-45.999999-21-78-10.98768-34.60085-17-59-6.6636-25.05043-16.43274-58c-16-41-15.56726-46-20.56726-30-4,11-11,31-16,45-4,14-11,43-15,65-7,46-26.17407,120-26.17407,120s-10.156272,58.411297-20.64257,62c-8.76609,3-1.18336,5-44.18336-1-26-3-50-11-54-18-8-13-2-73,11-103q74.7-311.4,83-346Z" fill="#e4472a" stroke="#ac5029" stroke-width="32"/><path d="M3283,1448c-9-11-16-98-40-520-6-111-1-118,97-118c44,0,88,4,98,9c9,5,31,15,47,22c40,19,53,32,69,71c23,56,27,110,12,165-12,47-12,53,5,79c24,37,34,123,20,166-21,63-74,105-151,121-88,17-146,19-157,5Zm168-129c25-18,29-27,29-70c0-31,5-47.0978-6-58-6-8-13.892191-9.58087-30-16-17.873093-6.241703-32.529793-2.248604-49,1-27,7-27,8-23,76c5,90,24,106,79,67Zm-7-265c11-4,16-19,16-49c0-51-25-78-67-73-26,3-28,6-31,53-3,38,1,52,14,62c19,14,43,16,68,7Z" fill="#e4472a" stroke="#ac5029" stroke-width="32"/><path d="M2840,1535c-8-9-10-28-6-50c7-34,8-35,54-35c49-1,79-18,101-57c17-33,14-48-18-82-25-27-36-31-78-31-26,1-59,7-73,15-41,24-74,19-93-14-24-41-22-49,21-67c20-9,45-20,54-25c10-5,23-9,30-9c19,0,58-62,58-91c0-45-26-69-76-69-24,0-39.943819,7.076406-44,10-21.037035,15.162972-40.295593,6.603934-52-21-23-40-23-56,3-69c32-18,111-40,142-40s82,31,107,65c36,48,51,145,30,185-7,14-5,21,13,33c45,30,77.195937,82.194223,87,103c4.240965,9,8,15.46893,15,30c7,9,8,60-7,103-18,49-52,86-104,110-53,25-145,29-164,6Z" fill="#e4472a" stroke="#ac5029" stroke-width="32"/><path d="M2400,1760c-8-4-31-15-50-24-35-15-90.213764-79.892728-100-95-5.85068-9.03185,0,0,0,0s-155-250-166-307c-10-52,12-108,57-143c21-17,40.44261-27,40.44261-27c5.925368-4.111771,20.929658-10.694611,29.8-14c0,0,29.75739-10,54.75739-10c53,0,118,39,155,93c13,17,26,34,30,37c5,3,32,53,62,110c52,101,55,105,89,108c30,3,37,8,41,31c8,38-1,68-22,74-12,3-20,18-24,43-8,45-55,100-87,113.8995-12,4.8-22,10.1005-36,13.1005-17,3-53,9-74-3Zm113-162c2.149371-9.298733-39.259111,9.117967-63,23s-65,39-61,39c6.000001,0,17.096425,20.01377,53,24s51-60,71-86Zm-135-42c15-8,37-25,49-38c21-22,21-24,4-58-73-148-118-200-171-200-44,0-60,15-60,56c0,48,114,254,141,254c5,0,22-6,37-14Z" fill="#e4472a" stroke="#ac5029" stroke-width="32"/><path d="M1971,2047c-94-99-130-139-164-181-18-21-57-66-87-98-30-33-51-56.07835-51-56.07835s-34-33.50673-46.9619-51.92165-1.0381-25,22.9619-52c13-16,32-28,42-27c10,0,39.8971,27,66,55c48,51,61.72318,67.93746,83,53.56592c7.031528-4.749483,56-19.56592,90-19.56592c95,0,161,44,212,140c27,50,8,158.72182-6.21186,190-11,28.1332-21.31556,41-21.31556,41s-38.47258,52-63.47258,62c-13,5-33-10-76-56Zm77-150c4-36-36-90-84-113-32-15-37-15-51-2-18,19-14,26,47,97c51,59,83,66,88,18Z" fill="#e4472a" stroke="#ac5029" stroke-width="32"/></g><g><path d="M4656,5898c-13-18-36-55-51-83-15-27-33-57-40-65s-24-35-37-60c-50-90-70-126-91-160-33-53-54-90-83-145l-27-49l34-28c55-46,71-38,127,62l30,55l67-3c118-6,195,40,247,147c42,87,34,180-23,253-16,20-29,41-29,46c0,10-74,62-89,62-6,0-21-15-35-32Zm80-203c6-26-31-112-55-124-33-17-71-22-71-9c0,16,57,127,77,150c18,21,41,13,49-17Z" fill="#e4472a" stroke="#ac5029" stroke-width="32"/><path d="M4161,6105.04193c-18,3-55,18.95807-79,23.95807-33,6-46,5-58-6-7-8-14-32-14-54c0-42-2-39,78-69c25-10,32-18,32-39-1-31-32-146-32-146q-16.3-51.2-18-59c0,0-54-217-65-273-5-26-2-34,17-46c13-8,37-18,55-22c30-6,28-2,43,33c9.84182,24.42691,20,63,20,63s9,33,9,33q104.4,356.4,116,396c2,0,30-7,62-16c76-21,104-22,113-4c34,67,35,72,17,85-10,7-57,25-105,41q-171.6,52.24193-191,59.04193Z" fill="#e4472a" stroke="#ac5029" stroke-width="32"/><path d="M3486,6176c-4-14-9-38-12-53-3-16-11-71-16-123-12-119-23-226-37-360-6-58-8-113-5-122c7-23,86-25,104-3c6,8,16,47,21,87c20,163,20,163,59,163h35l3-133l3-133l57,3l57,3l2,35c1,19,7,82,13,140c19,188,29,454,19,467-13,15-63,26-87,19-20-7-23-25-39-198-6-70-19-87-57-72-16,6-17,22-15,145c2,76,0,141-2,144-3,3-26,8-52,11-44,6-46,5-51-20Z" fill="#e4472a" stroke="#ac5029" stroke-width="32"/><path d="M2989,5462.65165c29-4.31718,69,1.34835,69,1.34835c207,18,205,17,213,56c6,25,3,42-7,58-15,22-20,23-84,17-37-4-70-3-73,2-3,4-8,33-12,64l-7,57l73,12c139,23,151,32,130,100-1.104014,6.155247-8.190288,19.517337-15,27-12,11-39.271305,9.949559-54,8-31-4-79-7-107-8l-50-2-9,60c-15,106-15,105,29,121c22,7,54,14,70,14c48,0,59,13,56,61-4,71-21,79-111,53-25-7-58-13-73-13-16-1-48-6-73-12-42-11-44-13-44-48c0-21,4-62,9-92s14-94,21-144c6-49,18-131,26-181s8-108,8-108c-.571368-44.285673,4.05686-89.6835,15-103.34835Z" fill="#e4472a" stroke="#ac5029" stroke-width="32"/><path d="M2457,5987.77615c-36-14-16-37.77615,17-109.77615c13-29,36-98,36-98s19-55,19-55s20-55,20-55s22-62,22-62s9-36,9-36s7-26,7-26s33-89,27-98c-8-13-77-39-89-34-7,2-27,38-27,38s-56,118-56,118-57,135-57,135-21.321045,51-21.321045,51-5.678955,24-17.678955,49c-11.683739,24.341123-33,19-77,0-29-14-39-24-39-42c0-12,8-23,8-23s21-47,21-47s29-79,47-118c52-114,71-158,84-200c23-75,53-135,67-135c7,0,21,4,31,9c9,5,28,13,42,19c14,5,59,25,100,44c104,48,145,62,163,55c9-3,25-26,36-51s25-46,30-46c6,0,29,7,51,16c33,13,40,21,40,43c0,30-66,192-82,202-6,4-26,1-44-7-64-29.13203-81.462035-28-88.462035-6-3,9-11.537965,36-15.537965,47-5,11-22,61-38,110-37,109-77,216-111,293-25.012534,63.987466-37,43.71387-114,19.77615Z" fill="#e4472a" stroke="#ac5029" stroke-width="32"/></g><path d="M2435.015979,3439.04967q-12.066579,153.49762-12.066579,153.49762c0,0,1.917873-26.722117,3.517841-43.321785c6.41724-48.12338,16.90175-106.339665,24.635719-131.816275C2460.74197,3385.65719,2509,3303,2542,3275c19.281493-19.188186,30.48786-30.394554,83.718086-69.616827c0,0,42.781723-24.05342,72.841362-35.486821C2728.267083,3167.321792,2815,3164,2815,3164c66-1,133-7,148-13c45-17,165,6,168,33c1,6,0,19,0,29-4,31,28,32,60,1c30-28,31-29,141-26c119,3,128,5,128,28c0,8,25,47,57,85c65,81,75,79,81-11c4-59,5-61,55-98c45.351485-32.621244,123.544979-72.830283,200.542029-41.331493c52.49799-27.99893,87.487824-13.092716,155.744035-15.749395C4144.286064,3129.919112,4190,3151,4246,3208c71,73,85,135,91,400c4,189,5,193,27,203c15,7,39,8,67,2c0,0,41.297317-4.396891,44-9c6.609897-7.278468,1-288,1-288-13.857861-275.717495-3.755725-289.325163,15.244275-302.325163c10-8,81.485988-59.867261,81.485988-59.867261s34.269737-9.807576,102.269737-3.807576c73,6,85,16,85,68c0,19.591908,1.085273,90.800874,2.602139,92.48959c5.066118-13.268404,7.44703-69.575856,11.510088-80.139807c3-8,29.379363-28.475381,29.379363-28.475381s19.887562-12.655726,55.594778-26.667416C4888.465721,3164.359223,4907,3155,4966,3152c107-6,122,3,195,117c35,53,68.671877,100.239915,68.671877,100.239915s29.882501,40.706096,35.529587,49.882612C5277.4872,3441.872645,5268,3401,5279,3334c10-66,15.709146-92.641618,36.980821-101.947971c12.408471-6.647397,52.292851-28.805394,52.292851-28.805394C5396.162932,3189.302018,5378.565123,3185.217439,5467,3188c54,2,102,7,107,12s-3.247047,16.441618,26.752953-4.558382c42-29,46.032121-44.522876,73.953252-46.786751C5693.571829,3149.409492,5767,3150,5782,3150c49,0,58,21,58,130c0,92-2.823732,133.686848,9.779204,108.625619C5862.779204,3348.625619,5991,3230,6023,3230c24,0,135,50,140,64c4,10-15,56-50,121-14,27-29,64-41,102-10,32,47.180336,190.832003,47.180336,190.832003s18.865623,59.615368,18.865623,59.615368s19.954041,52.552629,30.954041,82.552629c12,30,21,62,21,72c0,23-78.783484,87.103787-106.871613,98.125707-17.421743,6.399832-33.421311,13.155197-33.421311,13.155197s-21.707076,8.719096-42.707076,15.719096c-33,11-41,10-62-3-25-17-50.310923-69.961979-50.310923-69.961979s-18.843933-50.131968-18.843933-50.131968-15.446522-46.222497-15.446522-46.222497-17.467571-66.951577-23.467571-66.951577c-5,0,3.068949,68.268021,3.068949,93.268021c0,41-5,50-51,100c0,0-45.070568,45.993029-53.082868,50.52172C5729.994999,4059.308604,5660,4060,5660,4060c-86,0-94-5-105-62-9-45-23-48-67-10-45,38-40.728115,40.923125-132.729015,47.345805-116.130778-4.126481-116.605598-17.202588-145.605598-67.202588-33.011791-56.00215-56.388973-90.095268-56.388973-90.095268s-33.97312-59.452951-33.97312-59.452951-55.532971-90.159428-59.452951-92.119408c-3,3,1.306664,152.225686,1.306664,152.225686s2.707847,85.848701-1.157007,86.298724c-.546693,3.66743-52,48-52,48s-42.659656,43.310122-51.776845,45.662947c-7.94078,7.05847-157.345105,1.47052-161.756664.294104C4788.253673,4055.497542,4781,4030,4781,4030c-13-38-1.455601-50.616968-79,4c0,0-40.627677,30.437181-51.245415,33.194266C4567.654585,4065.994266,4382,4064,4382,4064c-152-3-287-7-299-10-21-4-21-8-26-256-7-301-14-359-48-394-26-25-91-36-109-18-12,12-30,270-30,427c0,115-1,118-27,140-15,12-37,32-49,45-13,13-33,22-51,22-16,0-59.743047,5.664457-62.743047,9.664457c28.102591,2.063577,80.696178,43.451791,80.696178,43.451791C3794.650437,4097.945839,3808.288156,4139.288156,3818,4173c6,16,12,49,12,73c0,38-6,49-49,94c0,0-40.766215,47.124827-49,50-13.939237,4.251874-159.647665,5.835664-175.48554-3.667067C3543.844161,4382.373464,3550,4345,3550,4345c0-32-14.536969-56.988919-27.536969-63.988919C3507.463031,4273.011081,3505,4290,3468,4325c-63,60-77,65-157,65-64,0-72-2-87-25-13-20-15-38-9-91c6-63,10-69,61-122c24.53483-34.321843,38.029232-50.346445,75.982218-73.961631-2-5-63.982218-.038369-108.982218.961631-74,2-82,0-97-21-9-12-16-32-16-45c0-37-15-35-65,9c0,0-33.532439,30.569809-51.362153,38.156917C2988.221019,4069.261455,2846,4061,2846,4061c-95-1-154.957511-6.120068-173.957131-11.719956-5.357023-1.319924-8.99982-1.99996-21.399572-7.99984C2641.043489,4036.4803,2613,4021,2587,3999c-80-70-135.862682-191.195843-161.78794-376.06845-1.744759-15.707204-1.99793-26.79463-1.99793-26.79463s.2-3.6.2-3.6-7.016888,72.723576-7.016888,72.723576-6.367683,64.96341-6.367683,64.96341q-15.172365,103.529105-16.858183,115.032339c0,0-8.742354,58.533734-11.899904,81.315964C2374.954272,3972.151789,2327,3993,2268,4036c-28,21-42,24-129,24-92,0-98-1-113-25-9-13-11.09077-25.12299-16-49s-33.135-115.72759-33.135-115.72759-24.2492,39.8886-32.28728,56.35599-16.51076,33.32731-46.57772,84.3716c0,0-26.0945,35.27796-54.17523,41.51812C1821.46419,4060.83834,1754,4060,1754,4060s-77.34622-.37133-85.56022-4.34584C1655.45636,4053.26945,1651,4028,1651,4028c-5-18-12-53-16-78-12-92-28.69152-168.55194-36-195-3.76827-21.69317-6.75047-36.17815-13-75-3-30-14-138-26-239-11-102-18-193-14-203c3-9,12.75062-24.84506,20.3396-34.89523s30.19666-31.40453,30.19666-31.40453C1619.67094,3141.33598,1693.6614,3138.50691,1754,3141c0,0,44.24994,1.10752,65.3876,4.73111C1829.05054,3149.95865,1836,3175,1836,3175c8,19,14.71255,61.60606,21.13361,68.31899c6,0,39.08389-73.48254,63.08389-89.48254C1923.79,3149.50061,1971,3150,2045,3150c0,0,71.35917-2.4027,82,0c6.25685,2.4027,25.8493,36.27844,25.8493,36.27844c20,38,28.1507,41.72156,50.1507,19.72156c16-16,43-20,143-18c83.281839,1.263645,102.82349,4.978933,100.583419,96.590331-6.804375,94.580821-11.56744,154.459339-11.56744,154.459339ZM3722,4357c15-24,8-121-11-150-69-106-282-130-415-47-45,27-61,63-61,132c1,69,9,78,78,78c62,0,87-13,87-47c0-40,36-73,80-73c49,0,73,20,85,72c9,36-3.185475,44.078848,20.814525,50.078848C3625.814525,4381.078848,3712,4372,3722,4357ZM1848,4012c12-15,23.9055-37.48391,28-52s12-50,21-80c8-30,14.812-71.34997,20-93s14-43,14-43s3.45451-9.41601,9-25c15.08634-42.39578,33.13786-.6864,43,41s19,93,48,205c19,71,18,70,112,70c48,0,91-5,97-11s13-26,15-45s7-50,10-69c31-179,71.032969-481.294224,72.032969-570.294224c0,0,3.402181-44.908882-2.032969-64.705776-4.090973-14.905422-50.360724-15.585857-50.360724-15.585857-28-5-68.639276.585857-87.639276,4.585857-35,7-36,8-42,64-12,120-29,212-37,204s-32-123-43-205c-4.10577-32.84619-19.48458-75.69176-34.22415-79.8509-31.28668-5.68849-47.15949-4.16346-93.38274-4.16346-77,0-85.1733,8.14702-97.39311,60.01436-4.35706,18.49368-9,56-49,212c0,0-5.30949,28.57365-8,30-3.73394-.99805-12-28-12-28-4.15454-19.68239-9.2941-38.52745-11-54s-8-72-17-129c0,0-14.98352-101.85704-17-104-2.60488-1.93471-72,0-72,0-50,0-75,4-84,14-12,16-7,142,11,266c6,36,12,88,15,115c5,55,27.29455,190.63513,64.29455,381.63513c7.4191,33.6509,9.00891,38.95025,67.30181,38.15535C1778.59636,4040.79048,1830,4032,1848,4012Zm1027.638504,27.931061C2883.693736,4040.925001,2867,4043,2906,4046c52.474743,4.372895,98.128695,6.99336,107.258486-8.983773C3032.984982,4002.494863,3025.427,3895.967729,3024,3713c4-175,9-350,12-390l6-72-39-10c-50-14-120-14-129,0-4,8-38,9-108,4-124-8-171,6-232,72-43,46-55,75-74,186-13,69-3,181,22,267c16,55,77,172,106,204c43,46,118,77,177,71c28-2,105.638504-5.068939,110.638504-5.068939ZM3327,4039c8-8,9-77,6-230-4-148-3-219,4-219c12,0,61.061901,52.673155,73,72c2.10209,3.403119,16,32,35,62s55,94,81,143c25,48,57,100,71,114c23,25,29,26,91,21c37-3,70-10,74-16s8-42,8-81c0-38,5-110,10-160c5-49,10-179,11-288c1-160-1-201-12-208-8-5-43-8-79-7l-65,3-7,45c-3,25-10,102-13,173-5,85-11,127-19,127-6,0-38-39-71-86-59-85-71-101-121-157-14-15-29-39-34-53-10-24-11-25-107-22l-98,3-8,55c-10,66-4,690,7,708c9,15,148,16,163,1Zm168-4c46.033879-5.335544,110.274045-4.737147,111.274045-5.737147C3607.274045,4029.262853,3568,3998,3555,3971c-14-27-23.619746-52.336376-25-55-15.241624-29.413381-101.268405-185.44234-101.268405-185.44234s1.268405,106.44234,1.268405,163.44234c0,90-.292995,119.96458-17.292995,135.96458C3347.765228,4071.291171,3384.03141,4053.579778,3408,4050c4,0,43-7,87-15Zm1158,0c22-22,32-324,20-570-6-110-14-208-18-217-6-15-20-18-74-18-87,0-83.935303,9.451013-82,115c16,110,14,520-2,534-19,15-208,25-227,12-12-8-17-45-22-173-4-90-11-197-16-238-16-131-68-216-149-244-48-16-149-21-169-8-6,4-14,29-17,55-7,51-2,57,65,71c36,8,79.799596,29.696698,92.248474,71.785766c6.520841,19.562525,8.892054,27.861783,13.041678,53.352341C4072.03259,3517.670343,4075,3592,4079,3765c0,0,3.258155,266.419323,15.616768,267.720236C4103.072668,4036.622958,4290,4040,4290,4040c113,3,237,7,277,8c52,1,76-2,86-13Zm299-3c7-7,10-91,9-236-1-171,1-226,10-226c15,0,49,42,49,42s55,93,55,93s55.409892,94.648447,55.409892,94.648447s27.439821,46.386372,27.439821,46.386372s37.150287,55.965181,46.150287,75.965181c10,20,28,49,41,63c22,22,32,25,99,25c54,0,79-4,90-16c9-8,14.264525-15.952061,16-22s5-38,10-77c5-38,10-194,11-345c0,0,5.847831-272.302513,2-275c2.075197-7.052027-154.36022-11.483628-153.917062-2.620427C5312.435541,3282.12909,5306,3346,5306,3346c-3,42-6,130-6,194c0,89-3,120-14,129s-27.908412-18.422652-27.908412-18.422652-19.101338-30.137657-19.101338-30.137657-17.403432-28.864233-17.403432-28.864233-30.586818-60.575458-63.586818-111.575458c-163-255-163-255-251-245-98,11-95,10-101,68-33,326-28.297376,692.136698,6.994981,731.840602C4833.876303,4044.840106,4933,4051,4952,4032Zm1057.885942-305.910722C6009.885942,3726.089278,5976,3630,5978,3600c2-31,16-69,54-146c16-34,28-70,26-80-4-21-72-62-103-63-24,0-85.254894,85.460361-96,114-5.135567,13.719087-10,38-22,60-18,33-28,41-56,43-20,2-37-2-43-10-5-7-6-68-2-136c8-147,5-152-75-152-88,0-85-13-89,390-3.542533,296.864244-5.734516,377.997121,17.954012,411.788104c10.397274,14.831403,44.590157,11.147547,72.45902,11.844264c9,0,27.586968,1.367632,41.586968-4.632368c30-14,35.871262-30.704856,27.871262-187.704856-1.387312-70.059319.549258-133.893272,5.549258-142.893272C5750.42052,3682.401872,5792,3685,5817,3713c26,29,51,84,73,163c26,90,60,148,89,152c38,6,111-26,111-49c0-21-60.914582-191.045749-60.914582-191.045749q-17.279528-55.678476-19.199476-61.864973Z" fill="#e4472a" fill-rule="evenodd" stroke="#ac5029" stroke-width="16"/><path d="M2726,3869c-53-41-106-190-106-295c0-126,101-215,194-172c14,6,29,20,32,32c8,24,6,368-2,400-5,23-51,56-77,56-8,0-26-9-41-21Zm94-260c4-93,2-169-3-176s-26-13-47-13c-35,0-38,2-44,36-9,43,2,170,16,204c6,14,14,34,18,45c23,62,45.933158,82.885091,57.933158,78.885091c8-2-.933158-56.885091,2.066842-174.885091Z" fill="#e4472a" stroke="#ac5029" stroke-width="16"/><path d="M1162.92838,4048.16522C1240.92838,4048.16522,1272,4040,1315,4018c66-34,90-61,120-137c19-46,25.18049-68.69005,30.10906-113.54005c4.43571-55.69285.98571-52.24285-10.10906-52.45995h-70c-69,0-70,0-78,30-39,127-67,165-126,165-61-1-113-61-126-145-14-90,8.06553-260.26222,13.06553-282.26222c3.8-16.6,4.2-16,9.6-30.4C1088.66553,3414.93778,1140,3360,1174,3360c15,0,38,11,51,25c21,20,25,34,25,85c0,69,4,73,83,74c37,1,52-4,63-18c17-24,18-80,2-143-20-76-40-105-94-133-67-34-186-35-257-1-102,50-167,216-167,429c0,95,15,165,51,236c27,54,43.85935,65.81606,43.85935,65.81606c12.687097,17.000712,65.30175,43.96985,101.00003,53.98278c44.84053,10.88362,68.903674,11.714476,91.42245,14.80173c56.001689,3.033472,62.440388,12.240081-10.44828,10.88362-25.862878.230096-80.53882-10.88362-80.53882-10.88362s-57.867439-15.466991-63.17145-18.27189c-20.85501-11.02867-19.65697-10.04689-38.44029-20.96743C948.91052,3994.94614,923,3954,905,3920c-37-71-45-116-45-247c0-136,9-186,50-296c28-75,99-145,211-209c42-24,59-28,129-28c60,0,91,5,119,19c46,24,82.4956,58.88931,94.6956,79.28931c9.687311,18.219698,16.978654,34.877792,18.3044,39.71069c0,0,14,51,16,101c1.943097,40.138753,6.30325,82.278625,4,89l-43,42c-24,23-53,45-65,50-26,10-145,3-158-10-5-5-9-28-7-51c2-49-16-109-33-109-15,0-34.90254,46.73953-40.81417,66.65237-4.97821,14.93463-5.08172,14.58944-7.15617,27.38016C1142.11803,3498.96716,1138,3679,1153,3720c25,66,39,88,65,100c22,10,28,9,39-6c7-10,15-34,19-53c8-49,20-71,60-105c33-27,39-28,126-27c51,1,95,6,99,12c5,9,2,31-19,142-13,62-47,115-116,179-95,88-128.31731,97.48419-251.31731,97.48419" fill="#e4472a" stroke="#ac5029" stroke-width="16"/></g><path d="M249.411916,554.071268c2.2527,2.20087,11.309411,2.827095,14.625802,1.632064" transform="translate(-1.380977 0.156929)" fill="none" stroke="#ac5029" stroke-width="3" stroke-linecap="round"/><path d="M249.003901,553.443551c2.071465,2.510867,11.895233,3.138584,15.69292,2.353938" transform="translate(-5.58668 10.420099)" fill="none" stroke="#ac5029" stroke-width="3" stroke-linecap="round"/></svg>
